<mxfile host="65bd71144e" modified="2020-11-26T03:48:17.216Z" agent="5.0 (Windows NT 10.0; Win64; x64) AppleWebKit/537.36 (KHTML, like Gecko) Code/1.51.1 Chrome/83.0.4103.122 Electron/9.3.3 Safari/537.36" version="13.6.5" etag="U9dGi8Tnyfb1tgRJTJCZ">
    <diagram id="FN-8v5i5ieyYpjM6NDEu" name="Page-1">
        <mxGraphModel dx="587" dy="667" grid="1" gridSize="10" guides="1" tooltips="1" connect="1" arrows="1" fold="1" page="1" pageScale="1" pageWidth="827" pageHeight="1169" math="0" shadow="0">
            <root>
                <mxCell id="0"/>
                <mxCell id="1" parent="0"/>
            </root>
        </mxGraphModel>
    </diagram>
</mxfile>